<svg width="267" height="395" viewBox="0 0 267 395" fill="none" xmlns="http://www.w3.org/2000/svg">
<path d="M267 352.26H0L100.125 50.4824H166.875L267 352.26Z" fill="#B7E8C4" fill-opacity="0.53"/>
<path d="M267 351.701C267 327.845 207.23 308.508 133.502 308.508C59.7702 308.508 0 327.845 0 351.701C0 375.553 59.7702 394.89 133.502 394.89C207.23 394.89 267 375.553 267 351.701Z" fill="#4CC66E" fill-opacity="0.22"/>
<path d="M222.12 59.2535C222.12 40.5532 180.432 25.3945 129.007 25.3945C77.5805 25.3945 35.8928 40.5532 35.8928 59.2535C35.8928 77.9539 77.5805 93.1141 129.007 93.1141C180.432 93.1141 222.12 77.9539 222.12 59.2535Z" fill="#D6DEFF"/>
<path d="M222.12 59.2535C222.12 40.5532 180.432 25.3945 129.007 25.3945C77.5805 25.3945 35.8928 40.5532 35.8928 59.2535C35.8928 77.9539 77.5805 93.1141 129.007 93.1141C180.432 93.1141 222.12 77.9539 222.12 59.2535Z" fill="#33527D"/>
<path d="M213.649 50.7892C213.649 36.7634 175.75 25.3945 129 25.3945C82.2505 25.3945 44.3506 36.7634 44.3506 50.7892C44.3506 64.815 82.2505 76.1838 129 76.1838C175.75 76.1838 213.649 64.815 213.649 50.7892Z" fill="#5E7599"/>
<path d="M205.196 55.0226C205.196 43.3344 176.771 33.8594 141.709 33.8594C106.646 33.8594 78.2227 43.3344 78.2227 55.0226C78.2227 66.7093 106.646 76.1843 141.709 76.1843C176.771 76.1843 205.196 66.7093 205.196 55.0226Z" fill="#435E88"/>
<path d="M78.2227 50.7893C78.2227 22.7397 100.961 0 129.012 0C157.062 0 179.801 22.7397 179.801 50.7893C179.801 50.7893 162.871 59.2537 129.012 59.2537C95.1514 59.2537 78.2227 50.7893 78.2227 50.7893Z" fill="#5E7599"/>
<path d="M128.268 12.2453C125.515 7.25244 116.042 7.19808 107.109 12.1242C98.1757 17.0484 93.1662 25.0882 95.9171 30.0806C98.6701 35.0715 108.143 35.1254 117.076 30.2013C126.01 25.2755 131.019 17.2373 128.268 12.2449V12.2453Z" fill="#7D8FAC"/>
<path d="M110.325 10.2253C107.469 7.37159 102.154 8.06002 98.4544 11.7629C94.7547 15.4657 94.071 20.7804 96.9275 23.6341C99.7825 26.487 105.097 25.7994 108.797 22.0961C112.497 18.3929 113.18 13.0786 110.325 10.2253Z" fill="#ADB9CA"/>
<path d="M103.611 33.8589C103.611 38.5351 99.8221 42.3248 95.1455 42.3248C90.4709 42.3248 86.6812 38.5355 86.6812 33.8589C86.6812 29.1843 90.4705 25.3945 95.1455 25.3945C99.8217 25.3945 103.611 29.1839 103.611 33.8589ZM137.47 42.3248C137.47 46.9994 133.681 50.7892 129.006 50.7892C124.33 50.7892 120.54 46.9998 120.54 42.3248C120.54 37.6486 124.33 33.8589 129.006 33.8589C133.681 33.8589 137.47 37.6482 137.47 42.3248ZM171.329 33.8589C171.329 38.5351 167.54 42.3248 162.865 42.3248C158.19 42.3248 154.401 38.5355 154.401 33.8589C154.401 29.1843 158.19 25.3945 162.865 25.3945C167.54 25.3945 171.329 29.1839 171.329 33.8589Z" fill="#EFF2FF"/>
<path d="M86.6784 177.769C85.2782 177.766 83.9007 177.416 82.6689 176.75C81.4372 176.085 80.3896 175.124 79.6198 173.955C78.8498 172.786 78.3814 171.444 78.2565 170.05C78.1315 168.656 78.354 167.252 78.904 165.965L104.299 106.71C106.14 102.412 111.117 100.418 115.415 102.261C119.713 104.104 121.703 109.084 119.857 113.381L94.4622 172.636C93.8097 174.159 92.7243 175.458 91.3406 176.371C89.9569 177.283 88.3359 177.77 86.6784 177.769Z" fill="#D5F1DD"/>
<path d="M156.498 337.117L154.816 330.946C159.101 329.093 162.108 326.459 162.108 326.459C162.108 326.459 162.108 332.068 167.717 337.117L162.108 342.726L160.986 351.14C161.134 351.196 161.278 351.252 161.42 351.309C163.388 352.102 164.771 353.032 166.595 355.066C167.422 356.675 167.722 357.625 167.717 359.554L163.79 360.114L158.181 359.554V355.627C157.26 353.219 156.187 352.489 153.694 352.262V350.018L155.938 347.213C157.62 344.409 157.591 339.826 156.498 337.117Z" fill="#00FF19" fill-opacity="0.78"/>
<path d="M154.816 330.946L154.617 330.487L154.219 330.66L154.333 331.078L154.816 330.946ZM156.498 337.117L156.016 337.248L156.024 337.276L156.035 337.304L156.498 337.117ZM155.938 347.213L156.328 347.526L156.349 347.499L156.366 347.47L155.938 347.213ZM153.694 350.018L153.303 349.705L153.194 349.842V350.018H153.694ZM153.694 352.262H153.194V352.718L153.649 352.759L153.694 352.262ZM158.181 359.554H157.681V360.006L158.131 360.051L158.181 359.554ZM163.79 360.114L163.741 360.612L163.801 360.618L163.861 360.609L163.79 360.114ZM167.717 359.554L167.788 360.048L168.216 359.987L168.217 359.555L167.717 359.554ZM166.595 355.066L167.04 354.838L167.01 354.78L166.967 354.732L166.595 355.066ZM160.986 351.14L160.49 351.074L160.438 351.467L160.809 351.607L160.986 351.14ZM162.108 342.726L161.754 342.372L161.634 342.492L161.612 342.66L162.108 342.726ZM167.717 337.117L168.071 337.47L168.443 337.097L168.051 336.745L167.717 337.117ZM162.108 326.459H162.608C162.608 326.263 162.493 326.085 162.314 326.004C162.135 325.923 161.926 325.954 161.778 326.083L162.108 326.459ZM154.333 331.078L156.016 337.248L156.981 336.985L155.298 330.815L154.333 331.078ZM156.035 337.304C156.55 338.58 156.824 340.33 156.759 342.111C156.695 343.894 156.293 345.649 155.509 346.956L156.366 347.47C157.265 345.972 157.69 344.034 157.759 342.147C157.827 340.258 157.54 338.363 156.962 336.929L156.035 337.304ZM155.547 346.901L153.303 349.705L154.084 350.33L156.328 347.526L155.547 346.901ZM153.194 350.018V352.262H154.194V350.018H153.194ZM153.649 352.759C154.863 352.87 155.645 353.098 156.23 353.529C156.814 353.959 157.268 354.64 157.714 355.806L158.648 355.448C158.173 354.206 157.63 353.318 156.824 352.724C156.019 352.131 155.018 351.88 153.739 351.764L153.649 352.759ZM157.681 355.627V359.554H158.681V355.627H157.681ZM158.131 360.051L163.741 360.612L163.84 359.617L158.231 359.056L158.131 360.051ZM163.861 360.609L167.788 360.048L167.646 359.059L163.72 359.619L163.861 360.609ZM168.217 359.555C168.22 358.564 168.144 357.798 167.952 357.063C167.76 356.331 167.459 355.654 167.04 354.838L166.15 355.295C166.558 356.087 166.82 356.689 166.984 357.316C167.148 357.941 167.219 358.615 167.217 359.552L168.217 359.555ZM166.967 354.732C165.097 352.646 163.651 351.669 161.607 350.845L161.233 351.773C163.124 352.535 164.446 353.418 166.223 355.4L166.967 354.732ZM161.607 350.845C161.462 350.787 161.314 350.729 161.163 350.672L160.809 351.607C160.954 351.662 161.095 351.717 161.233 351.773L161.607 350.845ZM161.481 351.206L162.603 342.792L161.612 342.66L160.49 351.074L161.481 351.206ZM162.461 343.079L168.071 337.47L167.363 336.763L161.754 342.372L162.461 343.079ZM158.581 355.927L161.82 351.609L161.02 351.009L157.781 355.327L158.581 355.927ZM161.82 351.609L161.947 351.44L161.147 350.84L161.02 351.009L161.82 351.609ZM162.108 326.459C161.608 326.459 161.608 326.459 161.608 326.46C161.608 326.46 161.608 326.46 161.608 326.46C161.608 326.461 161.608 326.461 161.608 326.462C161.608 326.463 161.608 326.465 161.608 326.467C161.608 326.471 161.608 326.476 161.608 326.483C161.608 326.497 161.609 326.515 161.609 326.539C161.611 326.587 161.614 326.656 161.62 326.743C161.632 326.918 161.655 327.17 161.701 327.486C161.792 328.118 161.974 329.008 162.336 330.058C163.061 332.16 164.506 334.9 167.382 337.488L168.051 336.745C165.318 334.285 163.959 331.696 163.282 329.732C162.942 328.748 162.774 327.92 162.69 327.343C162.648 327.054 162.628 326.828 162.618 326.676C162.612 326.601 162.61 326.544 162.609 326.507C162.608 326.489 162.608 326.475 162.608 326.467C162.608 326.463 162.608 326.461 162.608 326.459C162.608 326.458 162.608 326.458 162.608 326.458C162.608 326.458 162.608 326.458 162.608 326.458C162.608 326.458 162.608 326.459 162.608 326.459C162.608 326.459 162.608 326.459 162.108 326.459ZM155.014 331.405C157.195 330.462 159.047 329.322 160.353 328.419C161.007 327.967 161.525 327.573 161.881 327.292C162.059 327.151 162.197 327.038 162.291 326.96C162.338 326.92 162.373 326.89 162.398 326.869C162.41 326.858 162.42 326.85 162.426 326.845C162.43 326.842 162.432 326.84 162.434 326.838C162.435 326.837 162.436 326.837 162.436 326.836C162.436 326.836 162.437 326.836 162.437 326.835C162.437 326.835 162.437 326.835 162.437 326.835C162.437 326.835 162.437 326.835 162.108 326.459C161.778 326.083 161.778 326.083 161.778 326.083C161.778 326.083 161.778 326.083 161.778 326.083C161.778 326.083 161.778 326.083 161.778 326.083C161.778 326.083 161.778 326.083 161.777 326.084C161.776 326.085 161.774 326.086 161.772 326.089C161.767 326.093 161.759 326.1 161.748 326.109C161.726 326.128 161.693 326.155 161.65 326.192C161.562 326.265 161.432 326.372 161.261 326.507C160.919 326.777 160.418 327.158 159.784 327.596C158.516 328.474 156.722 329.577 154.617 330.487L155.014 331.405Z" fill="black"/>
<path d="M90.4912 347.515C90.4912 347.515 92.1717 344.36 91.613 341.345C91.0534 338.324 88.4988 336.176 87.5142 335.447C88.6762 333.504 89.9303 331.809 89.9303 331.809C89.9303 331.809 91.8437 329.406 93.5973 327.58L97.2223 330.687V340.784L101.71 349.759L103.953 351.441L106.197 354.807C106.197 354.807 103.895 356.109 102.271 356.49C100.138 356.99 96.6614 356.49 96.6614 356.49L96.1004 352.563C95.5395 348.076 92.174 348.076 90.4912 347.515Z" fill="#467D00"/>
<path d="M96.1004 352.563C95.5395 348.076 92.174 348.076 90.4912 347.515C90.4912 347.515 92.1717 344.36 91.613 341.345C91.0534 338.324 88.4988 336.176 87.5142 335.447C88.6762 333.504 89.9303 331.809 89.9303 331.809C89.9303 331.809 91.8437 329.406 93.5973 327.58L97.2223 330.687V340.784L101.71 349.759M96.1004 352.563L96.6613 356.49C96.6613 356.49 100.138 356.99 102.271 356.49C103.895 356.109 106.197 354.807 106.197 354.807L103.953 351.441L101.71 349.759M96.1004 352.563L101.71 349.759" stroke="black"/>
<path fill-rule="evenodd" clip-rule="evenodd" d="M53.2981 281.086C56.6865 280.561 61.1511 277.16 61.1511 277.16C63.7001 274.592 65.1899 267.92 66.421 262.406C66.5361 261.89 66.649 261.384 66.7603 260.893C68.0406 257.116 69.2523 255.192 71.4596 251.686C71.7455 251.232 72.048 250.752 72.3696 250.237C75.1742 245.75 79.6616 243.503 88.6364 239.017C95.5336 231.716 99.7897 234.684 104.164 237.735C105.837 238.902 107.528 240.081 109.391 240.702C113.425 242.047 116.055 242.226 119.168 242.438C120.75 242.545 122.457 242.662 124.536 242.943C126.824 243.254 128.759 243.686 130.587 244.094C134.008 244.858 137.058 245.539 141.363 245.187C146.802 244.742 148.945 243.753 150.414 243.075C151.368 242.634 152.038 242.325 153.143 242.382C154.429 242.449 156.186 243.163 158.307 244.024C160.813 245.041 163.825 246.263 167.166 246.87C171.328 247.626 177.262 242.943 177.262 242.943C179.586 244.991 181.075 245.786 184.554 246.309C184.256 259.128 185.868 266.62 193.529 278.283C183.994 285.577 183.919 296.098 183.994 308.572C183.573 315.753 179.629 318.546 175.797 321.258L175.58 321.412C175.417 333.019 176.477 340.103 178.384 351.702L173.416 356.75L172.775 355.628L170.531 355.067C171.482 347.139 171.163 343.242 168.288 337.679C165.916 336.584 163.687 334.082 162.117 327.021C159.491 329.648 152.691 332.327 150.678 333.119L150.677 333.12C150.541 333.173 150.427 333.218 150.338 333.254C141.102 336.943 135.963 335.565 127.721 333.356L127.34 333.254C124.076 332.38 121.959 331.094 119.86 329.82C117.82 328.581 115.797 327.353 112.756 326.523C106.12 324.711 102.096 324.416 95.3675 328.765C88.6393 333.114 85.8149 336.834 81.3444 343.349C81.0377 343.796 80.7524 344.185 80.4843 344.551C79.7302 345.58 79.1125 346.423 78.5397 347.836L78.4908 347.957C77.679 349.959 77.1462 351.272 77.4179 353.446C77.5897 354.82 78.5397 356.811 78.5397 356.811C77.5765 356.337 73.507 358.922 72.3696 361.3C72.3368 357.741 69.5481 356.705 68.1262 356.177C67.5915 355.978 67.2501 355.851 67.3213 355.689C72.1456 354.345 77.4179 337.18 75.7351 316.985C75.4647 313.741 75.1594 310.637 74.8638 307.634C73.2222 290.951 71.8848 277.359 78.5397 259.771C81.4651 252.04 89.7582 241.822 89.7582 241.822C89.7582 241.822 76.296 247.992 71.8086 255.284C67.3213 262.576 65.0776 277.721 65.0776 277.721C65.0776 277.721 64.5166 282.208 61.1511 288.378C57.7855 294.549 55.5418 295.67 55.5418 295.67L57.7855 292.305L59.4683 288.378C59.4683 288.378 57.6709 291.307 56.1028 292.305C54.3495 293.42 51.6154 293.427 51.6154 293.427L56.1028 290.061C56.1028 290.061 52.8608 291.183 51.0544 291.183C49.2481 291.183 46.5671 290.061 46.5671 290.061C48.0668 289.847 49.1574 289.796 50.0889 289.753C51.5961 289.683 52.6866 289.632 54.42 288.939C55.6059 288.465 57.2246 287.256 57.2246 287.256C57.2246 287.256 53.5603 287.024 50.4935 286.695C47.4268 286.367 44.8843 283.33 44.8843 283.33C44.8843 283.33 47.9158 284.346 49.9326 284.452C51.9135 284.556 54.9809 283.891 54.9809 283.891C54.9809 283.891 51.5622 283.426 49.3717 282.769C47.1811 282.112 46.5671 280.525 46.5671 280.525C46.5671 280.525 50.6915 281.49 53.2981 281.086Z" fill="#8FFF00"/>
<path d="M80.7834 359.616C80.0484 358.421 78.5397 356.811 78.5397 356.811C77.5765 356.337 73.507 358.922 72.3696 361.3V365.225C72.3696 365.225 76.1991 365.797 78.5397 365.225C80.1603 364.829 82.4662 363.542 82.4662 363.542C82.4662 363.542 81.6576 361.037 80.7834 359.616Z" fill="#620DF8"/>
<path d="M182.872 355.628L178.384 351.702L173.416 356.75L175.019 359.555L180.067 360.677L184.554 360.116L182.872 355.628Z" fill="#5B5C6C"/>
<path d="M175.58 321.412C176.72 312.063 177.746 307.184 181.189 300.097M175.58 321.412C175.417 333.019 176.477 340.103 178.384 351.702M175.58 321.412C175.652 321.361 175.725 321.309 175.797 321.258M175.58 321.412L175.797 321.258M127.34 333.254C124.076 332.38 121.959 331.094 119.86 329.82C117.82 328.581 115.797 327.353 112.756 326.523C106.12 324.711 102.096 324.416 95.3675 328.765C88.6393 333.114 85.8149 336.834 81.3444 343.349C81.0377 343.796 80.7524 344.185 80.4843 344.551C79.7302 345.58 79.1125 346.423 78.5397 347.836M127.34 333.254C127.468 333.288 127.595 333.322 127.721 333.356M127.34 333.254L127.721 333.356M78.5397 347.836L78.4908 347.957M78.5397 347.836C78.5233 347.877 78.507 347.917 78.4908 347.957M78.5397 356.811C78.5397 356.811 77.5897 354.82 77.4179 353.446C77.1462 351.272 77.679 349.959 78.4908 347.957M78.5397 356.811C78.5397 356.811 80.0484 358.421 80.7834 359.616C81.6576 361.037 82.4662 363.542 82.4662 363.542C82.4662 363.542 80.1603 364.829 78.5397 365.225C76.1991 365.797 72.3696 365.225 72.3696 365.225M78.5397 356.811C77.5765 356.337 73.507 358.922 72.3696 361.3M72.3696 365.225C72.3696 365.225 72.3696 362.833 72.3696 361.3M72.3696 365.225V361.3M72.3696 361.3C72.3368 357.741 69.5481 356.705 68.1262 356.177C67.5915 355.978 67.2501 355.851 67.3213 355.689C72.1456 354.345 77.4179 337.18 75.7351 316.985C75.4647 313.741 75.1594 310.637 74.8638 307.634C73.2222 290.951 71.8848 277.359 78.5397 259.771C81.4651 252.04 89.7582 241.822 89.7582 241.822C89.7582 241.822 76.296 247.992 71.8086 255.284C67.3213 262.576 65.0776 277.721 65.0776 277.721C65.0776 277.721 64.5166 282.208 61.1511 288.378C57.7855 294.549 55.5418 295.67 55.5418 295.67L57.7855 292.305L59.4683 288.378C59.4683 288.378 57.6709 291.307 56.1028 292.305C54.3495 293.42 51.6154 293.427 51.6154 293.427L56.1028 290.061C56.1028 290.061 52.8608 291.183 51.0544 291.183C49.2481 291.183 46.5671 290.061 46.5671 290.061C48.0668 289.847 49.1574 289.796 50.0889 289.753C51.5961 289.683 52.6866 289.632 54.42 288.939C55.6059 288.465 57.2246 287.256 57.2246 287.256C57.2246 287.256 53.5603 287.024 50.4935 286.695C47.4268 286.367 44.8843 283.33 44.8843 283.33C44.8843 283.33 47.9158 284.346 49.9326 284.452C51.9135 284.556 54.9809 283.891 54.9809 283.891C54.9809 283.891 51.5622 283.426 49.3717 282.769C47.1811 282.112 46.5671 280.525 46.5671 280.525C46.5671 280.525 50.6915 281.49 53.2981 281.086C56.6865 280.561 61.1511 277.16 61.1511 277.16C63.7001 274.592 65.1899 267.92 66.421 262.406C66.5361 261.89 66.649 261.384 66.7603 260.893C68.0406 257.116 69.2523 255.192 71.4596 251.686C71.7455 251.232 72.048 250.752 72.3696 250.237C75.1742 245.75 79.6616 243.503 88.6364 239.017C95.5336 231.716 99.7897 234.684 104.164 237.735C105.837 238.902 107.528 240.081 109.391 240.702C113.425 242.047 116.055 242.226 119.168 242.438C120.75 242.545 122.457 242.662 124.536 242.943C126.824 243.254 128.759 243.686 130.587 244.094C134.008 244.858 137.058 245.539 141.363 245.187C146.802 244.742 148.945 243.753 150.414 243.075C151.368 242.634 152.038 242.325 153.143 242.382C154.429 242.449 156.186 243.163 158.307 244.024C160.813 245.041 163.825 246.263 167.166 246.87C171.328 247.626 177.262 242.943 177.262 242.943C179.586 244.991 181.075 245.786 184.554 246.309C184.256 259.128 185.868 266.62 193.529 278.283C183.994 285.577 183.919 296.098 183.994 308.572C183.573 315.753 179.629 318.546 175.797 321.258M162.117 327.021C163.687 334.082 165.916 336.584 168.288 337.679C171.163 343.242 171.482 347.139 170.531 355.067L172.775 355.628L173.416 356.75M162.117 327.021C163.656 318.363 163.099 313.561 159.313 305.145M162.117 327.021C159.491 329.648 152.691 332.327 150.678 333.119L150.677 333.12C150.541 333.173 150.427 333.218 150.338 333.254C141.102 336.943 135.963 335.565 127.721 333.356M178.384 351.702L182.872 355.628L184.554 360.116L180.067 360.677L175.019 359.555L173.416 356.75M178.384 351.702L173.416 356.75" stroke="black"/>
<path d="M85.0412 277.126C85.0412 277.126 80.8964 278.815 79.432 281.052C77.2726 284.351 76.2355 288.84 79.432 291.149C81.7406 292.816 84.764 289.083 86.724 291.149C88.114 292.614 86.4178 294.769 87.8458 296.197C89.8654 298.217 95.1379 297.389 95.1379 295.636V291.149C95.1379 289.396 96.9571 288.582 98.5034 288.905C100.336 289.287 98.3196 293.255 100.186 293.392C101.585 293.496 102.417 292.429 102.991 291.149C103.841 289.253 100.892 288.136 101.308 286.1C101.712 284.122 104.8 284.19 104.674 282.174C104.567 280.478 103.341 279.72 101.899 278.827L101.869 278.808C99.4476 277.309 97.0744 280.177 94.5769 278.808C92.0721 277.436 93.4725 273.078 90.6505 272.638C87.8787 272.206 85.0412 277.126 85.0412 277.126Z" fill="#FF00C7" stroke="black"/>
<path d="M171.803 250.975C170.542 254.412 168.417 254.312 167.429 253.384C166.441 252.457 162.919 254.683 162.682 257.6C162.512 259.682 163.921 261.294 165.064 261.818C167.019 262.715 167.238 264.201 166.753 267.842C166.088 272.841 172.722 276.185 173.849 271.456C174.668 268.015 175.861 267.176 178.898 266.636C180.907 266.279 182.598 260.3 181.263 257.6C180.583 256.223 178.234 255.613 177.903 250.975C177.572 246.336 173.065 247.537 171.803 250.975Z" fill="#FF00C7" stroke="black"/>
<path d="M131.673 258.108C119.712 257.541 103.461 259.751 104.371 269.315C104.933 275.211 113.776 275.518 116.272 281.083C120.025 289.447 106.224 295.625 111.372 303.498C118.386 314.225 137.532 313.859 149.875 306.86C161.673 300.17 163.667 289.405 159.676 278.281C155.615 266.962 146.36 258.804 131.673 258.108Z" fill="#FF0000" stroke="black"/>
<path d="M97.31 344.227C92.5375 345.011 95.2891 338.756 94.5054 338.365C94.5054 338.365 93.1015 337.665 92.2617 337.118C90.6995 336.1 88.6367 334.011 88.6367 334.011C88.9171 333.719 89.1933 333.442 89.457 333.192C98.6181 324.497 105.346 324.217 105.724 324.217C114.138 324.217 118.97 329.577 119.488 329.826C118.962 333.528 118.069 334.949 111.894 338.24C111.894 338.24 113.189 341.924 112.455 343.288C111.936 344.253 111.076 344.522 110.211 343.849C109.825 343.548 109.869 343.165 109.65 342.727C109.093 343.438 106.285 344.971 106.285 340.484C103.129 341.408 102.421 340.997 100.115 340.484C100.522 341.978 100.532 345.707 98.9928 345.532C97.0342 345.309 97.31 344.227 97.31 344.227Z" fill="#00FFD1"/>
<path d="M97.31 344.227V339.923C96.4338 339.533 95.9699 339.097 94.5054 338.365M97.31 344.227C92.5375 345.011 95.2891 338.756 94.5054 338.365M97.31 344.227C97.31 344.227 97.0342 345.309 98.9928 345.532C100.532 345.707 100.522 341.978 100.115 340.484C102.421 340.997 103.129 341.408 106.285 340.484M94.5054 338.365C94.5054 338.365 93.1015 337.665 92.2617 337.118C90.6995 336.1 88.6367 334.011 88.6367 334.011C88.9171 333.719 89.1933 333.442 89.457 333.192C98.6181 324.497 105.346 324.217 105.724 324.217C114.138 324.217 118.97 329.577 119.488 329.826C118.962 333.528 118.069 334.949 111.894 338.24C111.894 338.24 113.189 341.924 112.455 343.288C111.936 344.253 111.076 344.522 110.211 343.849C109.825 343.548 109.869 343.165 109.65 342.727M106.285 340.484C106.285 344.971 109.093 343.438 109.65 342.727M106.285 340.484C107.407 340.39 109.089 339.362 109.089 339.362C109.089 339.362 109.212 341.413 109.65 342.727" stroke="#FF478E"/>
<path d="M191.732 278.313H187.806C187.806 278.313 182.332 277.603 181.074 274.947C180.039 272.76 181.027 271.119 181.635 268.777C182.903 263.896 185.186 261.501 188.927 258.119C190.911 256.326 192.164 255.425 194.537 254.193C199.684 251.52 203.33 251.063 209.121 251.388C212.466 251.576 214.512 251.625 217.535 253.071C222.294 255.347 225.272 258.039 226.509 263.168C227.126 265.723 227.432 267.437 226.509 269.899C224.651 274.855 214.169 275.508 214.169 275.508C214.254 275.856 209.529 281.735 205.194 282.8C198.77 284.379 191.031 278.962 191.732 278.313Z" fill="#BCEA73"/>
<path d="M191.732 278.313H187.806C187.806 278.313 182.332 277.603 181.074 274.947C180.039 272.76 181.027 271.119 181.635 268.777C182.903 263.896 185.186 261.501 188.927 258.119C190.911 256.326 192.164 255.425 194.537 254.193C199.684 251.52 203.33 251.063 209.121 251.388C212.466 251.576 214.512 251.625 217.535 253.071C222.294 255.347 225.272 258.039 226.509 263.168C227.126 265.723 227.432 267.437 226.509 269.899C224.651 274.855 214.169 275.508 214.169 275.508M191.732 278.313C191.031 278.962 198.77 284.379 205.194 282.8C209.529 281.735 214.254 275.856 214.169 275.508M191.732 278.313C200.727 278.193 205.82 277.638 214.169 275.508M216.413 267.094C215.184 268.418 213.633 268.806 211.925 268.216C210.308 267.657 209.585 266.497 209.121 264.85C208.154 261.418 212.161 258.171 215.291 258.119M190.049 260.923C190.594 260.362 194.824 261.647 196.219 263.168C200.546 267.882 192.723 274.403 188.927 271.581" stroke="black"/>
<path d="M223.11 256.842L223.244 256.906C221.136 248.978 219.879 237.835 219.879 237.835C231.658 238.396 245.12 231.575 245.12 231.575L254.095 216.52C254.095 216.52 245.486 217.725 241.194 214.837C236.902 211.949 230.536 215.959 228.293 217.081C226.049 218.202 220.44 218.763 219.318 215.959C216.67 211.907 213.702 210.017 206.417 210.91C208.107 208.699 206.417 201.936 206.417 201.936C206.417 201.936 207.539 206.984 201.929 210.349C203.556 207.206 203.229 205.667 201.929 203.057C201.442 206.467 199.794 208.322 197.442 210.349C198.795 206.423 199.125 202.496 199.125 202.496L195.198 207.264L191.272 212.032C191.272 212.032 187.004 216.903 183.419 218.763C180.959 220.04 180.947 219.751 176.688 221.007C170.125 222.329 168.668 221.536 162.104 220.446C157.133 220.771 155.315 221.883 153.129 224.933C150.151 228.906 148.309 230.507 144.715 231.665C141.121 232.822 137.984 231.665 137.984 231.665L143.593 238.396C148.805 242.386 152.368 244.102 158.738 245.688C163.646 246.909 166.808 248.303 171.639 246.81C174.834 245.822 176.084 243.636 178.931 242.322C181.416 241.129 182.369 241.379 182.858 244.566C183.978 253.769 183.762 257.802 182.858 267.003C184.842 265.21 188.467 258.589 195.198 254.662C200.208 251.74 203.992 251.532 209.782 251.858C213.079 252.043 220.017 255.362 223.11 256.842Z" fill="#BCEA73"/>
<path d="M229.728 219.885C229.728 219.885 234.174 220.759 236.707 221.007C239.977 221.327 245.12 220.446 245.12 220.446C245.12 220.446 241.923 225.208 239.511 227.177C237.1 229.146 231.658 231.104 231.658 231.104M171.078 237.835C167.604 238.13 163.898 242.719 158.738 240.639C157.151 240 149.202 236.713 149.202 236.713C149.202 236.713 158.156 231.175 161.356 225.494M173.883 224.933C172.248 226.019 169.956 226.055 167.151 226.055C164.347 226.055 161.356 225.494 161.356 225.494M158.738 224.933L161.356 225.494M143.593 238.396L137.984 231.665C137.984 231.665 141.121 232.822 144.715 231.665C148.309 230.507 150.151 228.906 153.129 224.933C155.315 221.883 157.133 220.771 162.104 220.446C168.668 221.536 170.125 222.329 176.688 221.007C180.947 219.751 180.959 220.04 183.419 218.763C187.004 216.903 191.272 212.032 191.272 212.032L195.198 207.264L199.125 202.496C199.125 202.496 198.795 206.423 197.442 210.349C199.794 208.322 201.442 206.467 201.929 203.057C203.229 205.667 203.556 207.206 201.929 210.349C207.539 206.984 206.417 201.936 206.417 201.936C206.417 201.936 208.107 208.699 206.417 210.91C213.702 210.017 216.67 211.907 219.318 215.959C220.44 218.763 226.049 218.202 228.293 217.081C230.536 215.959 236.902 211.949 241.194 214.837C245.486 217.725 254.095 216.52 254.095 216.52L245.12 231.575C245.12 231.575 231.658 238.396 219.879 237.835C219.879 237.835 221.136 248.978 223.244 256.906C220.221 255.46 213.128 252.046 209.782 251.858C203.992 251.532 200.208 251.74 195.198 254.662C188.467 258.589 184.842 265.21 182.858 267.003C183.762 257.802 183.978 253.769 182.858 244.566C182.369 241.379 181.416 241.129 178.931 242.322C176.084 243.636 174.834 245.822 171.639 246.81C166.808 248.303 163.646 246.909 158.738 245.688C152.368 244.102 148.805 242.386 143.593 238.396Z" stroke="black"/>
<path fill-rule="evenodd" clip-rule="evenodd" d="M192.5 236.115C192.5 236.115 184.746 237.536 182.965 235.554C180.91 233.267 181.672 230.154 183.526 227.701C184.169 226.851 184.935 226.032 185.77 225.419C185.093 232.265 186.921 232.329 192.256 228.823C192.449 229.773 192.5 230.505 192.5 230.505V236.115Z" fill="white"/>
<path d="M185.77 225.419C185.093 232.265 186.921 232.329 192.256 228.823C192.089 228.001 191.816 227.016 191.379 226.202C188.834 228.028 187.875 227.642 186.892 224.751C186.508 224.925 186.133 225.152 185.77 225.419Z" fill="#A6DFFF"/>
<path d="M191.379 226.202C191.085 225.656 190.717 225.186 190.257 224.896C189.142 224.192 187.984 224.255 186.892 224.751C187.875 227.642 188.834 228.028 191.379 226.202Z" fill="#FF7C7C"/>
<path d="M192.256 228.823C192.449 229.773 192.5 230.505 192.5 230.505V236.115C192.5 236.115 184.746 237.536 182.965 235.554C180.91 233.267 181.672 230.154 183.526 227.701C184.169 226.851 184.935 226.032 185.77 225.419M192.256 228.823C186.921 232.329 185.093 232.265 185.77 225.419M192.256 228.823C192.089 228.001 191.816 227.016 191.379 226.202M185.77 225.419C186.133 225.152 186.508 224.925 186.892 224.751M191.379 226.202C191.085 225.656 190.717 225.186 190.257 224.896C189.142 224.192 187.984 224.255 186.892 224.751M191.379 226.202C188.834 228.028 187.875 227.642 186.892 224.751" stroke="black"/>
<path fill-rule="evenodd" clip-rule="evenodd" d="M207.538 234.992C207.538 234.992 215.292 236.413 217.073 234.431C219.128 232.144 218.366 229.03 216.512 226.578C215.87 225.728 215.103 224.909 214.269 224.296C214.945 231.142 213.118 231.206 207.782 227.7C207.589 228.65 207.538 229.382 207.538 229.382V234.992Z" fill="white"/>
<path d="M214.269 224.296C214.945 231.142 213.118 231.206 207.782 227.7C207.95 226.877 208.222 225.893 208.66 225.079C211.205 226.904 212.164 226.519 213.147 223.627C213.531 223.802 213.906 224.029 214.269 224.296Z" fill="#A6DFFF"/>
<path d="M208.66 225.079C208.953 224.533 209.321 224.063 209.781 223.773C210.897 223.069 212.055 223.132 213.147 223.627C212.164 226.519 211.205 226.904 208.66 225.079Z" fill="#FF7C7C"/>
<path d="M207.782 227.7C207.589 228.65 207.538 229.382 207.538 229.382V234.992C207.538 234.992 215.292 236.413 217.073 234.431C219.128 232.144 218.366 229.03 216.512 226.578C215.87 225.728 215.103 224.909 214.269 224.296M207.782 227.7C213.118 231.206 214.945 231.142 214.269 224.296M207.782 227.7C207.95 226.877 208.222 225.893 208.66 225.079M214.269 224.296C213.906 224.029 213.531 223.802 213.147 223.627M208.66 225.079C208.953 224.533 209.321 224.063 209.781 223.773C210.897 223.069 212.055 223.132 213.147 223.627M208.66 225.079C211.205 226.904 212.164 226.519 213.147 223.627" stroke="black"/>
<path d="M186.677 244.488C186.677 244.488 182.751 247.293 176.02 242.805C170.081 239.39 170.758 231.942 174.831 227.13C175.057 226.863 175.294 226.604 175.54 226.355C178.394 223.462 182.579 221.812 187.238 223.173C196.06 225.045 201.44 224.185 211.358 221.49C214.431 220.592 217.298 221.005 219.713 222.22C222.527 224.087 224.599 226.538 224.599 226.538C225.764 228.226 226.541 230.144 226.816 232.058C227.321 235.571 226.14 239.073 222.576 241.122C221.121 242.092 219.798 242.722 218.616 243.112C214.331 244.528 211.919 242.805 211.919 242.805C207.411 238.749 204.33 235.508 202.696 232.842C199.309 227.313 202.139 224.249 211.358 221.49C201.44 224.185 196.06 225.045 187.238 223.173C200.904 227.263 200.53 232.022 186.677 244.488Z" fill="#FF0000"/>
<path d="M187.238 223.173C200.904 227.263 200.53 232.022 186.677 244.488C186.677 244.488 182.751 247.293 176.02 242.805C170.081 239.39 170.758 231.942 174.831 227.13C175.057 226.863 175.294 226.604 175.54 226.355M187.238 223.173C182.579 221.812 178.394 223.462 175.54 226.355M187.238 223.173C196.06 225.045 201.44 224.185 211.358 221.49M211.358 221.49C202.139 224.249 199.309 227.313 202.696 232.842M211.358 221.49C214.431 220.592 217.298 221.005 219.713 222.22C222.527 224.087 224.599 226.538 224.599 226.538C225.764 228.226 226.541 230.144 226.816 232.058C227.321 235.571 226.14 239.073 222.576 241.122C221.121 242.092 219.798 242.722 218.616 243.112C214.331 244.528 211.919 242.805 211.919 242.805C207.411 238.749 204.33 235.508 202.696 232.842M202.696 232.842C200.283 230.022 199.096 230.237 196.886 233.088M175.54 226.355C172.489 225.011 170.364 228.997 172.503 231.026M175.54 226.355C175.552 226.36 175.563 226.365 175.575 226.37M226.093 229.343C228.24 227.306 226.09 223.298 223.021 224.687" stroke="black"/>
</svg>
