<svg width="213" height="166" viewBox="0 0 213 166" fill="none" xmlns="http://www.w3.org/2000/svg">
<path d="M113.498 137.117L111.816 130.946C116.101 129.093 119.108 126.459 119.108 126.459C119.108 126.459 119.108 132.068 124.717 137.117L119.108 142.726L117.986 151.14C118.134 151.196 118.278 151.252 118.42 151.309C120.388 152.102 121.771 153.032 123.595 155.066C124.422 156.675 124.722 157.625 124.717 159.554L120.79 160.114L115.181 159.554V155.627C114.26 153.219 113.187 152.489 110.694 152.262V150.018L112.938 147.213C114.62 144.409 114.591 139.826 113.498 137.117Z" fill="#00FF19" fill-opacity="0.78"/>
<path d="M111.816 130.946L111.617 130.487L111.219 130.66L111.333 131.078L111.816 130.946ZM113.498 137.117L113.016 137.248L113.024 137.276L113.035 137.304L113.498 137.117ZM112.938 147.213L113.328 147.526L113.349 147.499L113.366 147.47L112.938 147.213ZM110.694 150.018L110.303 149.705L110.194 149.842V150.018H110.694ZM110.694 152.262H110.194V152.718L110.649 152.759L110.694 152.262ZM115.181 159.554H114.681V160.006L115.131 160.051L115.181 159.554ZM120.79 160.114L120.741 160.612L120.801 160.618L120.861 160.609L120.79 160.114ZM124.717 159.554L124.788 160.048L125.216 159.987L125.217 159.555L124.717 159.554ZM123.595 155.066L124.04 154.838L124.01 154.78L123.967 154.732L123.595 155.066ZM117.986 151.14L117.49 151.074L117.438 151.467L117.809 151.607L117.986 151.14ZM119.108 142.726L118.754 142.372L118.634 142.492L118.612 142.66L119.108 142.726ZM124.717 137.117L125.071 137.47L125.443 137.097L125.051 136.745L124.717 137.117ZM119.108 126.459H119.608C119.608 126.263 119.493 126.085 119.314 126.004C119.135 125.923 118.926 125.954 118.778 126.083L119.108 126.459ZM111.333 131.078L113.016 137.248L113.981 136.985L112.298 130.815L111.333 131.078ZM113.035 137.304C113.55 138.58 113.824 140.33 113.759 142.111C113.695 143.894 113.293 145.649 112.509 146.956L113.366 147.47C114.265 145.972 114.69 144.034 114.759 142.147C114.827 140.258 114.54 138.363 113.962 136.929L113.035 137.304ZM112.547 146.901L110.303 149.705L111.084 150.33L113.328 147.526L112.547 146.901ZM110.194 150.018V152.262H111.194V150.018H110.194ZM110.649 152.759C111.863 152.87 112.645 153.098 113.23 153.529C113.814 153.959 114.268 154.64 114.714 155.806L115.648 155.448C115.173 154.206 114.63 153.318 113.824 152.724C113.019 152.131 112.018 151.88 110.739 151.764L110.649 152.759ZM114.681 155.627V159.554H115.681V155.627H114.681ZM115.131 160.051L120.741 160.612L120.84 159.617L115.231 159.056L115.131 160.051ZM120.861 160.609L124.788 160.048L124.646 159.059L120.72 159.619L120.861 160.609ZM125.217 159.555C125.22 158.564 125.144 157.798 124.952 157.063C124.76 156.331 124.459 155.654 124.04 154.838L123.15 155.295C123.558 156.087 123.82 156.689 123.984 157.316C124.148 157.941 124.219 158.615 124.217 159.552L125.217 159.555ZM123.967 154.732C122.097 152.646 120.651 151.669 118.607 150.845L118.233 151.773C120.124 152.535 121.446 153.418 123.223 155.4L123.967 154.732ZM118.607 150.845C118.462 150.787 118.314 150.729 118.163 150.672L117.809 151.607C117.954 151.662 118.095 151.717 118.233 151.773L118.607 150.845ZM118.481 151.206L119.603 142.792L118.612 142.66L117.49 151.074L118.481 151.206ZM119.461 143.079L125.071 137.47L124.363 136.763L118.754 142.372L119.461 143.079ZM115.581 155.927L118.82 151.609L118.02 151.009L114.781 155.327L115.581 155.927ZM118.82 151.609L118.947 151.44L118.147 150.84L118.02 151.009L118.82 151.609ZM119.108 126.459C118.608 126.459 118.608 126.459 118.608 126.46C118.608 126.46 118.608 126.46 118.608 126.46C118.608 126.461 118.608 126.461 118.608 126.462C118.608 126.463 118.608 126.465 118.608 126.467C118.608 126.471 118.608 126.476 118.608 126.483C118.608 126.497 118.609 126.515 118.609 126.539C118.611 126.587 118.614 126.656 118.62 126.743C118.632 126.918 118.655 127.17 118.701 127.486C118.792 128.118 118.974 129.008 119.336 130.058C120.061 132.16 121.506 134.9 124.382 137.488L125.051 136.745C122.318 134.285 120.959 131.696 120.282 129.732C119.942 128.748 119.774 127.92 119.69 127.343C119.648 127.054 119.628 126.828 119.618 126.676C119.612 126.601 119.61 126.544 119.609 126.507C119.608 126.489 119.608 126.475 119.608 126.467C119.608 126.463 119.608 126.461 119.608 126.459C119.608 126.458 119.608 126.458 119.608 126.458C119.608 126.458 119.608 126.458 119.608 126.458C119.608 126.458 119.608 126.459 119.608 126.459C119.608 126.459 119.608 126.459 119.108 126.459ZM112.014 131.405C114.195 130.462 116.047 129.322 117.353 128.419C118.007 127.967 118.525 127.573 118.881 127.292C119.059 127.151 119.197 127.038 119.291 126.96C119.338 126.92 119.373 126.89 119.398 126.869C119.41 126.858 119.42 126.85 119.426 126.845C119.43 126.842 119.432 126.84 119.434 126.838C119.435 126.837 119.436 126.837 119.436 126.836C119.436 126.836 119.437 126.836 119.437 126.835C119.437 126.835 119.437 126.835 119.437 126.835C119.437 126.835 119.437 126.835 119.108 126.459C118.778 126.083 118.778 126.083 118.778 126.083C118.778 126.083 118.778 126.083 118.778 126.083C118.778 126.083 118.778 126.083 118.778 126.083C118.778 126.083 118.778 126.083 118.777 126.084C118.776 126.085 118.774 126.086 118.772 126.089C118.767 126.093 118.759 126.1 118.748 126.109C118.726 126.128 118.693 126.155 118.65 126.192C118.562 126.265 118.432 126.372 118.261 126.507C117.919 126.777 117.418 127.158 116.784 127.596C115.516 128.474 113.722 129.577 111.617 130.487L112.014 131.405Z" fill="black"/>
<path d="M47.4912 147.515C47.4912 147.515 49.1717 144.36 48.613 141.345C48.0534 138.324 45.4988 136.176 44.5142 135.447C45.6762 133.504 46.9303 131.809 46.9303 131.809C46.9303 131.809 48.8437 129.406 50.5973 127.58L54.2223 130.687V140.784L58.7097 149.759L60.9534 151.441L63.1971 154.807C63.1971 154.807 60.8948 156.109 59.2706 156.49C57.1378 156.99 53.6614 156.49 53.6614 156.49L53.1004 152.563C52.5395 148.076 49.174 148.076 47.4912 147.515Z" fill="#467D00"/>
<path d="M53.1004 152.563C52.5395 148.076 49.174 148.076 47.4912 147.515C47.4912 147.515 49.1717 144.36 48.613 141.345C48.0534 138.324 45.4988 136.176 44.5142 135.447C45.6762 133.504 46.9303 131.809 46.9303 131.809C46.9303 131.809 48.8437 129.406 50.5973 127.58L54.2223 130.687V140.784L58.7097 149.759M53.1004 152.563L53.6613 156.49C53.6613 156.49 57.1378 156.99 59.2706 156.49C60.8948 156.109 63.1971 154.807 63.1971 154.807L60.9534 151.441L58.7097 149.759M53.1004 152.563L58.7097 149.759" stroke="black"/>
<path fill-rule="evenodd" clip-rule="evenodd" d="M10.2981 81.0863C13.6865 80.5613 18.1511 77.1598 18.1511 77.1598C20.7001 74.5925 22.1899 67.9196 23.421 62.4057C23.5361 61.8899 23.649 61.3842 23.7603 60.893C25.0406 57.1162 26.2523 55.1918 28.4596 51.686C28.7455 51.232 29.048 50.7515 29.3696 50.2371C32.1742 45.7497 36.6616 43.5025 45.6364 39.0169C52.5336 31.7157 56.7897 34.684 61.1641 37.7347C62.8375 38.9017 64.5281 40.0808 66.3906 40.7017C70.4245 42.0465 73.0549 42.2256 76.1683 42.4376C77.7502 42.5453 79.4568 42.6615 81.5355 42.9434C83.8243 43.2538 85.7588 43.6858 87.5874 44.0942C91.0076 44.858 94.0576 45.5392 98.3633 45.1871C103.802 44.7424 105.945 43.753 107.414 43.0749C108.368 42.6342 109.038 42.325 110.143 42.3825C111.429 42.4494 113.186 43.1628 115.307 44.0238C117.813 45.0407 120.825 46.2633 124.166 46.8699C128.328 47.6256 134.262 42.9434 134.262 42.9434C136.586 44.9915 138.075 45.7862 141.554 46.309C141.256 59.1283 142.868 66.6196 150.529 78.2833C140.994 85.577 140.919 96.0978 140.994 108.572C140.573 115.753 136.629 118.546 132.797 121.258L132.58 121.412C132.417 133.019 133.477 140.103 135.384 151.702L130.416 156.75L129.775 155.628L127.531 155.067C128.482 147.139 128.163 143.242 125.288 137.679C122.916 136.584 120.687 134.082 119.117 127.021C116.491 129.648 109.691 132.327 107.678 133.119L107.677 133.12C107.541 133.173 107.427 133.218 107.338 133.254C98.1021 136.943 92.9631 135.565 84.7214 133.356L84.3402 133.254C81.0764 132.38 78.959 131.094 76.8598 129.82C74.8198 128.581 72.7971 127.353 69.7561 126.523C63.1205 124.711 59.0957 124.416 52.3675 128.765C45.6393 133.114 42.8149 136.834 38.3444 143.349C38.0377 143.796 37.7524 144.185 37.4843 144.551C36.7302 145.58 36.1125 146.423 35.5397 147.836L35.4908 147.957C34.679 149.959 34.1462 151.272 34.4179 153.446C34.5897 154.82 35.5397 156.811 35.5397 156.811C34.5765 156.337 30.507 158.922 29.3696 161.3C29.3368 157.741 26.5481 156.705 25.1262 156.177C24.5915 155.978 24.2501 155.851 24.3213 155.689C29.1456 154.345 34.4179 137.18 32.7351 116.985C32.4647 113.741 32.1594 110.637 31.8638 107.634C30.2222 90.9507 28.8848 77.3592 35.5397 59.7711C38.4651 52.0399 46.7582 41.8216 46.7582 41.8216C46.7582 41.8216 33.296 47.9917 28.8086 55.2838C24.3213 62.5758 22.0776 77.7207 22.0776 77.7207C22.0776 77.7207 21.5166 82.2081 18.1511 88.3783C14.7855 94.5485 12.5418 95.6703 12.5418 95.6703L14.7855 92.3047L16.4683 88.3782C16.4683 88.3782 14.6709 91.3068 13.1028 92.3047C11.3495 93.4204 8.61537 93.4265 8.61537 93.4265L13.1028 90.061C13.1028 90.061 9.86082 91.1828 8.05445 91.1828C6.24807 91.1828 3.56705 90.061 3.56705 90.061C5.06683 89.8467 6.15742 89.7962 7.08889 89.753C8.59605 89.6831 9.68664 89.6325 11.42 88.9391C12.6059 88.4648 14.2246 87.2564 14.2246 87.2564C14.2246 87.2564 10.5603 87.024 7.49352 86.6954C4.42676 86.3669 1.88428 83.3299 1.88428 83.3299C1.88428 83.3299 4.9158 84.3457 6.9326 84.4518C8.91349 84.5559 11.9809 83.8908 11.9809 83.8908C11.9809 83.8908 8.56222 83.4261 6.37167 82.769C4.18113 82.1118 3.56705 80.5253 3.56705 80.5253C3.56705 80.5253 7.69147 81.4901 10.2981 81.0863Z" fill="#8FFF00"/>
<path d="M37.7834 159.616C37.0484 158.421 35.5397 156.811 35.5397 156.811C34.5765 156.337 30.507 158.922 29.3696 161.3V165.225C29.3696 165.225 33.1991 165.797 35.5397 165.225C37.1603 164.829 39.4662 163.542 39.4662 163.542C39.4662 163.542 38.6576 161.037 37.7834 159.616Z" fill="#620DF8"/>
<path d="M139.872 155.628L135.384 151.702L130.416 156.75L132.019 159.555L137.067 160.677L141.554 160.116L139.872 155.628Z" fill="#5B5C6C"/>
<path d="M132.58 121.412C133.72 112.063 134.746 107.184 138.189 100.097M132.58 121.412C132.417 133.019 133.477 140.103 135.384 151.702M132.58 121.412C132.652 121.361 132.725 121.309 132.797 121.258M132.58 121.412L132.797 121.258M84.3402 133.254C81.0764 132.38 78.959 131.094 76.8598 129.82C74.8198 128.581 72.7971 127.353 69.7561 126.523C63.1205 124.711 59.0957 124.416 52.3675 128.765C45.6393 133.114 42.8149 136.834 38.3444 143.349C38.0377 143.796 37.7524 144.185 37.4843 144.551C36.7302 145.58 36.1125 146.423 35.5397 147.836M84.3402 133.254C84.468 133.288 84.595 133.322 84.7214 133.356M84.3402 133.254L84.7214 133.356M35.5397 147.836L35.4908 147.957M35.5397 147.836C35.5233 147.877 35.507 147.917 35.4908 147.957M35.5397 156.811C35.5397 156.811 34.5897 154.82 34.4179 153.446C34.1462 151.272 34.679 149.959 35.4908 147.957M35.5397 156.811C35.5397 156.811 37.0484 158.421 37.7834 159.616C38.6576 161.037 39.4662 163.542 39.4662 163.542C39.4662 163.542 37.1603 164.829 35.5397 165.225C33.1991 165.797 29.3696 165.225 29.3696 165.225M35.5397 156.811C34.5765 156.337 30.507 158.922 29.3696 161.3M29.3696 165.225C29.3696 165.225 29.3696 162.833 29.3696 161.3M29.3696 165.225V161.3M29.3696 161.3C29.3368 157.741 26.5481 156.705 25.1262 156.177C24.5915 155.978 24.2501 155.851 24.3213 155.689C29.1456 154.345 34.4179 137.18 32.7351 116.985C32.4647 113.741 32.1594 110.637 31.8638 107.634C30.2222 90.9507 28.8848 77.3592 35.5397 59.7711C38.4651 52.0399 46.7582 41.8216 46.7582 41.8216C46.7582 41.8216 33.296 47.9917 28.8086 55.2838C24.3213 62.5758 22.0776 77.7207 22.0776 77.7207C22.0776 77.7207 21.5166 82.2081 18.1511 88.3783C14.7855 94.5485 12.5418 95.6703 12.5418 95.6703L14.7855 92.3047L16.4683 88.3782C16.4683 88.3782 14.6709 91.3068 13.1028 92.3047C11.3495 93.4204 8.61537 93.4265 8.61537 93.4265L13.1028 90.061C13.1028 90.061 9.86082 91.1828 8.05445 91.1828C6.24807 91.1828 3.56705 90.061 3.56705 90.061C5.06683 89.8467 6.15742 89.7962 7.08889 89.753C8.59605 89.6831 9.68664 89.6325 11.42 88.9391C12.6059 88.4648 14.2246 87.2564 14.2246 87.2564C14.2246 87.2564 10.5603 87.024 7.49352 86.6955C4.42676 86.3669 1.88428 83.3299 1.88428 83.3299C1.88428 83.3299 4.9158 84.3457 6.9326 84.4518C8.91349 84.5559 11.9809 83.8908 11.9809 83.8908C11.9809 83.8908 8.56222 83.4261 6.37167 82.769C4.18113 82.1118 3.56705 80.5253 3.56705 80.5253C3.56705 80.5253 7.69147 81.4901 10.2981 81.0863C13.6865 80.5613 18.1511 77.1598 18.1511 77.1598C20.7001 74.5925 22.1899 67.9196 23.421 62.4057C23.5361 61.8899 23.649 61.3842 23.7603 60.893C25.0406 57.1162 26.2523 55.1918 28.4596 51.686C28.7455 51.232 29.048 50.7515 29.3696 50.2371C32.1742 45.7497 36.6616 43.5025 45.6364 39.0169C52.5336 31.7157 56.7897 34.684 61.1641 37.7347C62.8375 38.9017 64.5281 40.0808 66.3906 40.7017C70.4245 42.0465 73.0549 42.2256 76.1683 42.4376C77.7502 42.5453 79.4568 42.6615 81.5355 42.9434C83.8243 43.2538 85.7588 43.6858 87.5874 44.0942C91.0076 44.858 94.0576 45.5392 98.3633 45.1871C103.802 44.7424 105.945 43.753 107.414 43.0749C108.368 42.6342 109.038 42.325 110.143 42.3825C111.429 42.4494 113.186 43.1628 115.307 44.0238C117.813 45.0407 120.825 46.2633 124.166 46.8699C128.328 47.6256 134.262 42.9434 134.262 42.9434C136.586 44.9915 138.075 45.7862 141.554 46.309C141.256 59.1283 142.868 66.6196 150.529 78.2833C140.994 85.577 140.919 96.0978 140.994 108.572C140.573 115.753 136.629 118.546 132.797 121.258M119.117 127.021C120.687 134.082 122.916 136.584 125.288 137.679C128.163 143.242 128.482 147.139 127.531 155.067L129.775 155.628L130.416 156.75M119.117 127.021C120.656 118.363 120.099 113.561 116.313 105.145M119.117 127.021C116.491 129.648 109.691 132.327 107.678 133.119L107.677 133.12C107.541 133.173 107.427 133.218 107.338 133.254C98.1021 136.943 92.9631 135.565 84.7214 133.356M135.384 151.702L139.872 155.628L141.554 160.116L137.067 160.677L132.019 159.555L130.416 156.75M135.384 151.702L130.416 156.75" stroke="black"/>
<path d="M42.0412 77.1256C42.0412 77.1256 37.8964 78.8148 36.432 81.0521C34.2726 84.3512 33.2355 88.8401 36.432 91.1487C38.7406 92.816 41.764 89.0828 43.724 91.1487C45.114 92.6139 43.4178 94.769 44.8458 96.197C46.8654 98.2166 52.1379 97.3886 52.1379 95.6361V91.1487C52.1379 89.3963 53.9571 88.5822 55.5034 88.905C57.3355 89.2875 55.3196 93.2547 57.1862 93.3924C58.585 93.4956 59.4167 92.4285 59.9908 91.1487C60.8413 89.2526 57.8921 88.1365 58.308 86.1004C58.7123 84.1217 61.8005 84.1895 61.6736 82.1739C61.5668 80.4783 60.3409 79.7195 58.8993 78.8272L58.869 78.8084C56.4476 77.3095 54.0744 80.1767 51.5769 78.8084C49.0721 77.436 50.4725 73.0782 47.6505 72.6382C44.8787 72.2061 42.0412 77.1256 42.0412 77.1256Z" fill="#FF00C7" stroke="black"/>
<path d="M128.803 50.9748C127.542 54.4125 125.417 54.3119 124.429 53.3844C123.441 52.4569 119.919 54.6832 119.682 57.6002C119.512 59.6825 120.921 61.2936 122.064 61.8178C124.019 62.7146 124.238 64.2015 123.753 67.8417C123.088 72.8408 129.722 76.1853 130.849 71.456C131.668 68.0147 132.861 67.1761 135.898 66.636C137.907 66.2789 139.598 60.3003 138.263 57.6002C137.583 56.2229 135.234 55.6135 134.903 50.9748C134.572 46.3362 130.065 47.5372 128.803 50.9748Z" fill="#FF00C7" stroke="black"/>
<path d="M88.6735 58.1078C76.712 57.541 60.4608 59.7515 61.3714 69.3153C61.9327 75.2109 70.7757 75.5184 73.2723 81.0831C77.0246 89.4468 63.2235 95.6248 68.3719 103.498C75.3863 114.225 94.5323 113.859 106.875 106.86C118.673 100.17 120.667 89.4053 116.676 78.2813C112.615 66.9621 103.36 58.8038 88.6735 58.1078Z" fill="#FF0000" stroke="black"/>
<path d="M54.31 144.227C49.5375 145.011 52.2891 138.756 51.5054 138.365C51.5054 138.365 50.1015 137.665 49.2617 137.118C47.6995 136.1 45.6367 134.011 45.6367 134.011C45.9171 133.719 46.1933 133.442 46.457 133.192C55.6181 124.497 62.3461 124.217 62.7238 124.217C71.1377 124.217 75.9697 129.577 76.4876 129.826C75.9618 133.528 75.0687 134.949 68.894 138.24C68.894 138.24 70.1893 141.924 69.4549 143.288C68.9357 144.253 68.0758 144.522 67.2112 143.849C66.8246 143.548 66.8694 143.165 66.6503 142.727C66.0932 143.438 63.2848 144.971 63.2848 140.484C60.1292 141.408 59.421 140.997 57.1146 140.484C57.5222 141.978 57.5318 145.707 55.9928 145.532C54.0342 145.309 54.31 144.227 54.31 144.227Z" fill="#00FFD1"/>
<path d="M54.31 144.227V139.923C53.4338 139.533 52.9699 139.097 51.5054 138.365M54.31 144.227C49.5375 145.011 52.2891 138.756 51.5054 138.365M54.31 144.227C54.31 144.227 54.0342 145.309 55.9928 145.532C57.5318 145.707 57.5222 141.978 57.1146 140.484C59.421 140.997 60.1292 141.408 63.2848 140.484M51.5054 138.365C51.5054 138.365 50.1015 137.665 49.2617 137.118C47.6995 136.1 45.6367 134.011 45.6367 134.011C45.9171 133.719 46.1933 133.442 46.457 133.192C55.6181 124.497 62.3461 124.217 62.7238 124.217C71.1377 124.217 75.9697 129.577 76.4876 129.826C75.9618 133.528 75.0687 134.949 68.894 138.24C68.894 138.24 70.1893 141.924 69.4549 143.288C68.9357 144.253 68.0758 144.522 67.2112 143.849C66.8246 143.548 66.8694 143.165 66.6503 142.727M63.2848 140.484C63.2848 144.971 66.0932 143.438 66.6503 142.727M63.2848 140.484C64.4066 140.39 66.0894 139.362 66.0894 139.362C66.0894 139.362 66.2122 141.413 66.6503 142.727" stroke="#FF478E"/>
<path d="M148.732 78.3126H144.806C144.806 78.3126 139.332 77.6033 138.074 74.947C137.039 72.7602 138.027 71.1187 138.635 68.7769C139.903 63.8957 142.186 61.5008 145.927 58.1193C147.911 56.3264 149.164 55.4251 151.537 54.1928C156.684 51.5199 160.33 51.0627 166.121 51.3882C169.466 51.5763 171.512 51.6251 174.535 53.071C179.294 55.3473 182.272 58.0392 183.509 63.1676C184.126 65.723 184.432 67.4374 183.509 69.8987C181.651 74.8553 171.169 75.5079 171.169 75.5079C171.254 75.8561 166.529 81.7346 162.194 82.8C155.77 84.3789 148.031 78.9618 148.732 78.3126Z" fill="#BCEA73"/>
<path d="M148.732 78.3126H144.806C144.806 78.3126 139.332 77.6033 138.074 74.947C137.039 72.7602 138.027 71.1187 138.635 68.7769C139.903 63.8957 142.186 61.5008 145.927 58.1193C147.911 56.3264 149.164 55.4251 151.537 54.1928C156.684 51.5199 160.33 51.0627 166.121 51.3882C169.466 51.5763 171.512 51.6251 174.535 53.071C179.294 55.3473 182.272 58.0392 183.509 63.1676C184.126 65.723 184.432 67.4374 183.509 69.8987C181.651 74.8553 171.169 75.5079 171.169 75.5079M148.732 78.3126C148.031 78.9618 155.77 84.3789 162.194 82.8C166.529 81.7346 171.254 75.8561 171.169 75.5079M148.732 78.3126C157.727 78.1929 162.82 77.6375 171.169 75.5079M173.413 67.0941C172.184 68.4179 170.633 68.8057 168.925 68.2159C167.308 67.6574 166.585 66.4972 166.121 64.8504C165.154 61.418 169.161 58.1712 172.291 58.1194M147.049 60.9229C147.594 60.362 151.824 61.6468 153.219 63.1677C157.546 67.8818 149.723 74.4032 145.927 71.5807" stroke="black"/>
<path d="M180.11 56.8421L180.244 56.9061C178.136 48.9779 176.879 37.8347 176.879 37.8347C188.658 38.3956 202.12 31.5751 202.12 31.5751L211.095 16.5196C211.095 16.5196 202.486 17.7251 198.194 14.8368C193.902 11.9485 187.536 15.9587 185.293 17.0805C183.049 18.2024 177.44 18.7633 176.318 15.9587C173.67 11.9068 170.702 10.0173 163.417 10.9104C165.107 8.69895 163.417 1.93555 163.417 1.93555C163.417 1.93555 164.539 6.98389 158.929 10.3494C160.556 7.20621 160.229 5.66666 158.929 3.0574C158.442 6.46702 156.794 8.32226 154.442 10.3494C155.795 6.42296 156.125 2.49647 156.125 2.49647L152.198 7.26435L148.272 12.0322C148.272 12.0322 144.004 16.9027 140.419 18.7633C137.959 20.0397 137.947 19.751 133.688 21.007C127.125 22.3292 125.668 21.5356 119.104 20.4461C114.133 20.7715 112.315 21.883 110.129 24.9335C107.151 28.9057 105.309 30.5068 101.715 31.6646C98.1208 32.8223 94.9839 31.6646 94.9839 31.6646L100.593 38.3957C105.805 42.3863 109.368 44.1018 115.738 45.6877C120.646 46.9095 123.808 48.3029 128.639 46.8095C131.834 45.8221 133.084 43.6365 135.931 42.3221C138.416 41.1293 139.369 41.3788 139.858 44.5658C140.978 53.769 140.762 57.8021 139.858 67.0028C141.842 65.2098 145.467 58.5889 152.198 54.6625C157.208 51.7401 160.992 51.5324 166.782 51.8578C170.079 52.0432 177.017 55.362 180.11 56.8421Z" fill="#BCEA73"/>
<path d="M186.728 19.8852C186.728 19.8852 191.174 20.7592 193.707 21.007C196.977 21.327 202.12 20.4461 202.12 20.4461C202.12 20.4461 198.923 25.2082 196.511 27.1772C194.1 29.1461 188.658 31.1036 188.658 31.1036M128.078 37.8347C124.604 38.1304 120.898 42.7192 115.738 40.6394C114.151 39.9997 106.202 36.7129 106.202 36.7129C106.202 36.7129 115.156 31.1754 118.356 25.4944M130.883 24.9335C129.248 26.0193 126.956 26.0553 124.151 26.0553C121.347 26.0553 118.356 25.4944 118.356 25.4944M115.738 24.9335L118.356 25.4944M100.593 38.3957L94.9839 31.6646C94.9839 31.6646 98.1208 32.8223 101.715 31.6646C105.309 30.5068 107.151 28.9057 110.129 24.9335C112.315 21.883 114.133 20.7715 119.104 20.4461C125.668 21.5356 127.125 22.3292 133.688 21.007C137.947 19.751 137.959 20.0397 140.419 18.7633C144.004 16.9027 148.272 12.0322 148.272 12.0322L152.198 7.26435L156.125 2.49647C156.125 2.49647 155.795 6.42296 154.442 10.3494C156.794 8.32226 158.442 6.46702 158.929 3.0574C160.229 5.66666 160.556 7.20621 158.929 10.3494C164.539 6.98389 163.417 1.93555 163.417 1.93555C163.417 1.93555 165.107 8.69895 163.417 10.9104C170.702 10.0173 173.67 11.9068 176.318 15.9587C177.44 18.7633 183.049 18.2024 185.293 17.0805C187.536 15.9587 193.902 11.9485 198.194 14.8368C202.486 17.7251 211.095 16.5196 211.095 16.5196L202.12 31.5751C202.12 31.5751 188.658 38.3956 176.879 37.8347C176.879 37.8347 178.136 48.9779 180.244 56.9061C177.221 55.4603 170.128 52.0459 166.782 51.8578C160.992 51.5324 157.208 51.7401 152.198 54.6625C145.467 58.5889 141.842 65.2098 139.858 67.0028C140.762 57.8021 140.978 53.769 139.858 44.5658C139.369 41.3788 138.416 41.1293 135.931 42.3221C133.084 43.6364 131.834 45.8221 128.639 46.8095C123.808 48.3029 120.646 46.9095 115.738 45.6877C109.368 44.1018 105.805 42.3863 100.593 38.3957Z" stroke="black"/>
<path fill-rule="evenodd" clip-rule="evenodd" d="M149.5 36.1147C149.5 36.1147 141.746 37.5359 139.965 35.5537C137.91 33.2669 138.672 30.1535 140.526 27.7008C141.169 26.8508 141.935 26.0316 142.77 25.4186C142.093 32.2653 143.921 32.3288 149.256 28.8226C149.449 29.7726 149.5 30.5054 149.5 30.5054V36.1147Z" fill="white"/>
<path d="M142.77 25.4186C142.093 32.2653 143.921 32.3288 149.256 28.8226C149.089 28.0005 148.816 27.0157 148.379 26.2024C145.834 28.0275 144.875 27.6421 143.892 24.7505C143.508 24.9246 143.133 25.1521 142.77 25.4186Z" fill="#A6DFFF"/>
<path d="M148.379 26.2024C148.085 25.6556 147.717 25.1863 147.257 24.8962C146.142 24.1924 144.984 24.2549 143.892 24.7505C144.875 27.6421 145.834 28.0275 148.379 26.2024Z" fill="#FF7C7C"/>
<path d="M149.256 28.8226C149.449 29.7726 149.5 30.5054 149.5 30.5054V36.1147C149.5 36.1147 141.746 37.5359 139.965 35.5537C137.91 33.2669 138.672 30.1535 140.526 27.7008C141.169 26.8508 141.935 26.0316 142.77 25.4186M149.256 28.8226C143.921 32.3288 142.093 32.2653 142.77 25.4186M149.256 28.8226C149.089 28.0005 148.816 27.0157 148.379 26.2024M142.77 25.4186C143.133 25.1521 143.508 24.9246 143.892 24.7505M148.379 26.2024C148.085 25.6556 147.717 25.1863 147.257 24.8962C146.142 24.1924 144.984 24.2549 143.892 24.7505M148.379 26.2024C145.834 28.0275 144.875 27.6421 143.892 24.7505" stroke="black"/>
<path fill-rule="evenodd" clip-rule="evenodd" d="M164.538 34.9916C164.538 34.9916 172.292 36.4129 174.073 34.4307C176.128 32.1438 175.366 29.0305 173.512 26.5778C172.87 25.7278 172.103 24.9085 171.269 24.2955C171.945 31.1422 170.118 31.2057 164.782 27.6996C164.589 28.6496 164.538 29.3824 164.538 29.3824V34.9916Z" fill="white"/>
<path d="M171.269 24.2955C171.945 31.1422 170.118 31.2057 164.782 27.6996C164.95 26.8775 165.222 25.8927 165.66 25.0794C168.205 26.9045 169.164 26.5191 170.147 23.6275C170.531 23.8016 170.906 24.0291 171.269 24.2955Z" fill="#A6DFFF"/>
<path d="M165.66 25.0794C165.953 24.5326 166.321 24.0633 166.781 23.7731C167.897 23.0694 169.055 23.1319 170.147 23.6275C169.164 26.5191 168.205 26.9045 165.66 25.0794Z" fill="#FF7C7C"/>
<path d="M164.782 27.6996C164.589 28.6496 164.538 29.3824 164.538 29.3824V34.9916C164.538 34.9916 172.292 36.4129 174.073 34.4307C176.128 32.1438 175.366 29.0305 173.512 26.5778C172.87 25.7278 172.103 24.9085 171.269 24.2955M164.782 27.6996C170.118 31.2057 171.945 31.1422 171.269 24.2955M164.782 27.6996C164.95 26.8775 165.222 25.8927 165.66 25.0794M171.269 24.2955C170.906 24.0291 170.531 23.8016 170.147 23.6275M165.66 25.0794C165.953 24.5326 166.321 24.0633 166.781 23.7731C167.897 23.0694 169.055 23.1319 170.147 23.6275M165.66 25.0794C168.205 26.9045 169.164 26.5191 170.147 23.6275" stroke="black"/>
<path d="M143.677 44.488C143.677 44.488 139.751 47.2926 133.02 42.8052C127.081 39.3895 127.758 31.9423 131.831 27.1299C132.057 26.863 132.294 26.6042 132.54 26.3546C135.394 23.4623 139.579 21.8115 144.238 23.1728C153.06 25.0454 158.44 24.1847 168.358 21.4901C171.431 20.5921 174.298 21.0048 176.713 22.22C179.527 24.0865 181.599 26.5384 181.599 26.5384C182.764 28.2262 183.541 30.1438 183.816 32.0582C184.321 35.571 183.14 39.0726 179.576 41.1224C178.121 42.0923 176.798 42.7216 175.616 43.1121C171.331 44.5285 168.919 42.8052 168.919 42.8052C164.411 38.7488 161.33 35.5085 159.696 32.8416C156.309 27.3131 159.139 24.2494 168.358 21.4901C158.44 24.1847 153.06 25.0454 144.238 23.1728C157.904 27.2632 157.53 32.0225 143.677 44.488Z" fill="#FF0000"/>
<path d="M144.238 23.1728C157.904 27.2632 157.53 32.0225 143.677 44.488C143.677 44.488 139.751 47.2926 133.02 42.8052C127.081 39.3895 127.758 31.9423 131.831 27.1299C132.057 26.863 132.294 26.6042 132.54 26.3546M144.238 23.1728C139.579 21.8115 135.394 23.4623 132.54 26.3546M144.238 23.1728C153.06 25.0454 158.44 24.1847 168.358 21.4901M168.358 21.4901C159.139 24.2494 156.309 27.3131 159.696 32.8416M168.358 21.4901C171.431 20.5921 174.298 21.0048 176.713 22.22C179.527 24.0865 181.599 26.5384 181.599 26.5384C182.764 28.2262 183.541 30.1438 183.816 32.0582C184.321 35.571 183.14 39.0726 179.576 41.1224C178.121 42.0923 176.798 42.7216 175.616 43.1121C171.331 44.5285 168.919 42.8052 168.919 42.8052C164.411 38.7488 161.33 35.5085 159.696 32.8416M159.696 32.8416C157.283 30.0225 156.096 30.2374 153.886 33.0881M132.54 26.3546C129.489 25.0112 127.364 28.9966 129.503 31.0258M132.54 26.3546C132.552 26.3597 132.563 26.3649 132.575 26.3701M183.093 29.343C185.24 27.3062 183.09 23.2983 180.021 24.6873" stroke="black"/>
</svg>
