<svg width="3566" height="1862" viewBox="0 0 3566 1862" fill="none" xmlns="http://www.w3.org/2000/svg">
<rect width="3566" height="1862" fill="#D9D9D9"/>
<path d="M413 1467C413 1467 756.048 1159.8 1012.14 1024.5C1297.28 873.846 1537.26 965.866 1793.69 767.698C1993.49 613.297 1979.98 388.957 2190.38 250.385C2468.83 66.9976 3030 145.861 3030 145.861" stroke="#FD0505"/>
<path d="M413 1467C413 1467 911.609 1186.65 1289.92 1149.39C1572.12 1121.6 1739.14 1259.05 2014.81 1206.66C2247.45 1162.45 2404.57 1115.42 2537.97 968.345C2716.41 771.606 2350.79 554.939 2537.97 362.646C2667.89 229.172 3030 149 3030 149" stroke="#0A05FA"/>
<path d="M414 1467C414 1467 1025 1278.9 1284 1179.5C1543 1080.09 1546 604.221 1715.83 391.352C2046.92 -23.6326 3022 143 3022 143" stroke="#09FF3F"/>
<path d="M274.197 1519.31L237.276 1494.48L295.078 1489.86L410.369 1469.7L352 1571.15L329.049 1625.54L319.503 1584.01L313.113 1574.89L296.73 1586.36L263.042 1538.25L279.425 1526.78L274.197 1519.31Z" fill="#25252B"/>
<path d="M274.197 1519.31L237.276 1494.48L295.078 1489.86M274.197 1519.31L295.078 1489.86M274.197 1519.31L279.425 1526.78M295.078 1489.86L410.369 1469.7L352 1571.15M319.503 1584.01L329.049 1625.54L352 1571.15M319.503 1584.01L352 1571.15M319.503 1584.01L313.113 1574.89M313.113 1574.89L296.73 1586.36L263.042 1538.25L279.425 1526.78M313.113 1574.89L279.425 1526.78M373.508 1495.51L349.916 1498.43L318.624 1533.94L363.856 1518.34L373.508 1495.51Z" stroke="#00FF57" stroke-width="4"/>
</svg>
