<svg width="184" height="167" viewBox="0 0 184 167" fill="none" xmlns="http://www.w3.org/2000/svg">
<g id="Vector 24">
<path d="M43.1972 53.3111L6.27649 28.4779L64.0784 23.8552L179.369 3.70264L121 105.148L98.0487 159.542L88.5025 118.014L82.1133 108.889L65.7303 120.361L32.0417 72.2483L48.4248 60.7768L43.1972 53.3111Z" fill="#25252B"/>
<path d="M43.1972 53.3111L6.27649 28.4779L64.0784 23.8552M43.1972 53.3111L64.0784 23.8552M43.1972 53.3111L48.4248 60.7768M64.0784 23.8552L179.369 3.70264L121 105.148M88.5025 118.014L98.0487 159.542L121 105.148M88.5025 118.014L121 105.148M88.5025 118.014L82.1133 108.889M82.1133 108.889L65.7303 120.361L32.0417 72.2483L48.4248 60.7768M82.1133 108.889L48.4248 60.7768M142.508 29.5136L118.916 32.434L87.6245 67.9432L132.856 52.3425L142.508 29.5136Z" stroke="#00FF57" stroke-width="4"/>
</g>
</svg>
